<svg xmlns="http://www.w3.org/2000/svg" xmlns:xlink="http://www.w3.org/1999/xlink" width="500" zoomAndPan="magnify" viewBox="0 0 375 374.999991" height="500" preserveAspectRatio="xMidYMid meet" version="1.2"><defs><clipPath id="e4237abb15"><path d="M 112.5 117 L 262.5 117 L 262.5 258 L 112.5 258 Z M 112.5 117 "/></clipPath><clipPath id="b36fe7e313"><path d="M 160.042969 163.792969 L 214.792969 163.792969 L 214.792969 218.542969 L 160.042969 218.542969 Z M 160.042969 163.792969 "/></clipPath></defs><g id="c475ae384c"><g clip-rule="nonzero" clip-path="url(#e4237abb15)"><path style=" stroke:none;fill-rule:nonzero;fill:#000000;fill-opacity:1;" d="M 146.363281 257.277344 C 142.742188 259.132812 138.636719 255.882812 139.367188 251.726562 L 147.148438 207.382812 L 114.121094 175.921875 C 111.039062 172.976562 112.640625 167.597656 116.773438 167.015625 L 162.695312 160.492188 L 183.167969 119.925781 C 185.015625 116.269531 190.011719 116.269531 191.859375 119.925781 L 212.335938 160.492188 L 258.253906 167.015625 C 262.386719 167.597656 263.992188 172.976562 260.898438 175.921875 L 227.878906 207.382812 L 235.660156 251.726562 C 236.390625 255.882812 232.285156 259.132812 228.664062 257.277344 L 187.5 236.128906 L 146.351562 257.277344 Z M 146.363281 257.277344 "/></g><g clip-rule="nonzero" clip-path="url(#b36fe7e313)"><path style=" stroke:none;fill-rule:nonzero;fill:#ffffff;fill-opacity:1;" d="M 211.765625 188.140625 L 190.445312 188.140625 L 190.445312 166.820312 C 190.445312 165.144531 189.089844 163.792969 187.417969 163.792969 C 185.742188 163.792969 184.390625 165.144531 184.390625 166.820312 L 184.390625 188.140625 L 163.070312 188.140625 C 161.394531 188.140625 160.042969 189.492188 160.042969 191.167969 C 160.042969 192.839844 161.394531 194.195312 163.070312 194.195312 L 184.390625 194.195312 L 184.390625 215.515625 C 184.390625 217.191406 185.742188 218.542969 187.417969 218.542969 C 189.089844 218.542969 190.445312 217.191406 190.445312 215.515625 L 190.445312 194.195312 L 211.765625 194.195312 C 213.441406 194.195312 214.792969 192.839844 214.792969 191.167969 C 214.792969 189.492188 213.441406 188.140625 211.765625 188.140625 Z M 211.765625 188.140625 "/></g></g></svg>